<svg width="34" height="31" viewBox="0 0 34 31" fill="none" xmlns="http://www.w3.org/2000/svg">
    <path d="M17 2.76773C21.3738 2.76773 21.8925 2.78309 23.6198 2.85646C25.2161 2.92472 26.0843 3.17555 26.6594 3.38544C27.4257 3.66358 27.9699 3.99632 28.5451 4.53383C29.1184 5.07133 29.4733 5.58324 29.77 6.29992C29.9939 6.84084 30.2614 7.65478 30.3343 9.15126C30.4125 10.7723 30.4289 11.2569 30.4289 15.3573C30.4289 19.4577 30.4125 19.9441 30.3343 21.5634C30.2614 23.0599 29.9939 23.8738 29.77 24.4147C29.4733 25.1314 29.1184 25.6433 28.5451 26.1808C27.9717 26.7183 27.4257 27.0511 26.6612 27.3292C26.0843 27.5391 25.2161 27.7899 23.6198 27.8582C21.8907 27.9316 21.3738 27.9469 17 27.9469C12.6262 27.9469 12.1075 27.9316 10.3802 27.8582C8.78393 27.7899 7.91573 27.5391 7.34057 27.3292C6.62832 27.0834 5.98396 26.691 5.45492 26.1808C4.91095 25.6854 4.49238 25.0819 4.22997 24.4147C4.00609 23.8738 3.73854 23.0599 3.66573 21.5634C3.58747 19.9423 3.57108 19.4577 3.57108 15.3573C3.57108 11.2569 3.58747 10.7706 3.66573 9.15126C3.73854 7.65478 4.00609 6.84084 4.22997 6.30163C4.52665 5.58324 4.88158 5.07304 5.45492 4.53383C6.02826 3.99632 6.5743 3.66358 7.33875 3.38544C7.91573 3.17555 8.78393 2.92472 10.3802 2.85646C12.1093 2.78309 12.6262 2.76773 17 2.76773ZM17 0C12.5516 0 11.9946 0.0170637 10.2473 0.092144C8.49999 0.167224 7.30963 0.426593 6.26851 0.807113C5.17572 1.19222 4.18563 1.79608 3.36723 2.57662C2.45717 3.4298 1.89475 4.2864 1.47612 5.29657C1.07387 6.27432 0.797208 7.38858 0.717122 9.02499C0.637037 10.6648 0.618835 11.187 0.618835 15.3573C0.618835 19.5277 0.637037 20.0499 0.717122 21.688C0.797208 23.3244 1.07387 24.4403 1.47794 25.4164C1.89657 26.4266 2.45717 27.2832 3.36905 28.138C4.27911 28.9912 5.19282 29.5168 6.27033 29.9093C7.31145 30.2881 8.50181 30.5474 10.2455 30.6225C11.9946 30.6976 12.5516 30.7147 17 30.7147C21.4484 30.7147 22.0053 30.6976 23.7527 30.6225C25.4982 30.5474 26.6885 30.2881 27.7297 29.9076C28.8226 29.522 29.8128 28.9175 30.6309 28.1363C31.541 27.2832 32.1016 26.4266 32.5202 25.4164C32.9261 24.4403 33.2028 23.3244 33.2829 21.6897C33.3629 20.0499 33.3811 19.5277 33.3811 15.3573C33.3811 11.187 33.3629 10.6648 33.2829 9.0267C33.2028 7.39029 32.9261 6.27432 32.5202 5.29828C32.1098 4.27312 31.4656 3.34429 30.6328 2.57662C29.8139 1.79579 28.8232 1.19191 27.7297 0.807113C26.6885 0.426593 25.5 0.167224 23.7545 0.092144C22.0053 0.0170637 21.4484 0 17 0ZM17 7.47049C15.8952 7.47049 14.8013 7.67449 13.7806 8.07084C12.7599 8.46719 11.8325 9.04813 11.0514 9.78049C10.2702 10.5129 9.65051 11.3823 9.22773 12.3392C8.80496 13.296 8.58736 14.3216 8.58736 15.3573C8.58736 16.393 8.80496 17.4186 9.22773 18.3755C9.65051 19.3324 10.2702 20.2018 11.0514 20.9342C11.8325 21.6665 12.7599 22.2475 13.7806 22.6438C14.8013 23.0402 15.8952 23.2442 17 23.2442C19.2312 23.2442 21.3709 22.4132 22.9486 20.9342C24.5263 19.4551 25.4126 17.4491 25.4126 15.3573C25.4126 13.2656 24.5263 11.2596 22.9486 9.78049C21.3709 8.30142 19.2312 7.47049 17 7.47049ZM17 20.4764C15.5518 20.4764 14.1629 19.9371 13.1389 18.9771C12.1149 18.0171 11.5396 16.715 11.5396 15.3573C11.5396 13.9997 12.1149 12.6976 13.1389 11.7376C14.1629 10.7776 15.5518 10.2382 17 10.2382C18.4482 10.2382 19.837 10.7776 20.8611 11.7376C21.8851 12.6976 22.4604 13.9997 22.4604 15.3573C22.4604 16.715 21.8851 18.0171 20.8611 18.9771C19.837 19.9371 18.4482 20.4764 17 20.4764ZM27.7096 7.15993C27.7096 7.64869 27.5025 8.11744 27.1339 8.46304C26.7652 8.80865 26.2652 9.00281 25.7439 9.00281C25.2225 9.00281 24.7225 8.80865 24.3539 8.46304C23.9853 8.11744 23.7782 7.64869 23.7782 7.15993C23.7782 6.67117 23.9853 6.20242 24.3539 5.85682C24.7225 5.51121 25.2225 5.31705 25.7439 5.31705C26.2652 5.31705 26.7652 5.51121 27.1339 5.85682C27.5025 6.20242 27.7096 6.67117 27.7096 7.15993Z"
          fill="white" fill-opacity="0.8"/>
</svg>